<?xml version="1.0" encoding="UTF-8"?>
<mxfile host="app.diagrams.net">
  <diagram name="GMAT Topics" id="gmattopics">
    <mxGraphModel dx="1280" dy="800" grid="1" gridSize="10" guides="1" tooltips="1" connect="1" arrows="1" fold="1" page="1" pageScale="1" pageWidth="850" pageHeight="1100">
      <root>
        <mxCell id="0"/>
        <mxCell id="1" parent="0"/>

        <!-- Central node -->
        <mxCell id="2" value="GMAT Topics" style="rounded=1;whiteSpace=wrap;html=1;fillColor=#ffd966;strokeColor=#bf8f00;fontSize=14;fontStyle=1;" vertex="1" parent="1">
          <mxGeometry x="320" y="20" width="220" height="60" as="geometry"/>
        </mxCell>

        <!-- Main topic nodes (row 1) -->
        <mxCell id="10" value="Brain Science" style="rounded=1;whiteSpace=wrap;html=1;fillColor=#e1f5fe;strokeColor=#0288d1;fontSize=12;" vertex="1" parent="1">
          <mxGeometry x="20" y="120" width="180" height="40" as="geometry"/>
        </mxCell>
        <mxCell id="11" value="Animal Kingdom" style="rounded=1;whiteSpace=wrap;html=1;fillColor=#f3e5f5;strokeColor=#7b1fa2;fontSize=12;" vertex="1" parent="1">
          <mxGeometry x="220" y="120" width="180" height="40" as="geometry"/>
        </mxCell>
        <mxCell id="12" value="Biology (Cell Structure)" style="rounded=1;whiteSpace=wrap;html=1;fillColor=#e8f5e9;strokeColor=#2e7d32;fontSize=12;" vertex="1" parent="1">
          <mxGeometry x="420" y="120" width="200" height="40" as="geometry"/>
        </mxCell>
        <mxCell id="13" value="American History" style="rounded=1;whiteSpace=wrap;html=1;fillColor=#fff3e0;strokeColor=#ef6c00;fontSize=12;" vertex="1" parent="1">
          <mxGeometry x="640" y="120" width="180" height="40" as="geometry"/>
        </mxCell>
        <mxCell id="14" value="American Economy &amp; Finance" style="rounded=1;whiteSpace=wrap;html=1;fillColor=#ffebee;strokeColor=#c62828;fontSize=12;" vertex="1" parent="1">
          <mxGeometry x="840" y="120" width="220" height="40" as="geometry"/>
        </mxCell>

        <!-- Example subtopics for American Economy (fixed ampersands) -->
        <mxCell id="141" value="Foundational economics" style="rounded=1;whiteSpace=wrap;html=1;fillColor=#ffffff;strokeColor=#c62828;fontSize=11;" vertex="1" parent="1">
          <mxGeometry x="840" y="180" width="220" height="30" as="geometry"/>
        </mxCell>
        <mxCell id="142" value="Financial markets" style="rounded=1;whiteSpace=wrap;html=1;fillColor=#ffffff;strokeColor=#c62828;fontSize=11;" vertex="1" parent="1">
          <mxGeometry x="840" y="220" width="220" height="30" as="geometry"/>
        </mxCell>
        <mxCell id="143" value="Monetary &amp; fiscal policy" style="rounded=1;whiteSpace=wrap;html=1;fillColor=#ffffff;strokeColor=#c62828;fontSize=11;" vertex="1" parent="1">
          <mxGeometry x="840" y="260" width="220" height="30" as="geometry"/>
        </mxCell>

        <!-- Science & Tech subtopics with fixed ampersands -->
        <mxCell id="201" value="Biology &amp; Genetics" style="rounded=1;whiteSpace=wrap;html=1;fillColor=#ffffff;strokeColor=#c62828;fontSize=11;" vertex="1" parent="1">
          <mxGeometry x="320" y="380" width="160" height="30" as="geometry"/>
        </mxCell>
        <mxCell id="202" value="Astronomy &amp; Cosmology" style="rounded=1;whiteSpace=wrap;html=1;fillColor=#ffffff;strokeColor=#c62828;fontSize=11;" vertex="1" parent="1">
          <mxGeometry x="500" y="380" width="160" height="30" as="geometry"/>
        </mxCell>
        <mxCell id="203" value="AI, Genomics, Quantum &amp; Space" style="rounded=1;whiteSpace=wrap;html=1;fillColor=#ffffff;strokeColor=#c62828;fontSize=11;" vertex="1" parent="1">
          <mxGeometry x="680" y="380" width="160" height="30" as="geometry"/>
        </mxCell>

      </root>
    </mxGraphModel>
  </diagram>
</mxfile>
